<?xml version="1.0" encoding="utf-8"?>
<!-- Generator: Adobe Illustrator 24.0.2, SVG Export Plug-In . SVG Version: 6.00 Build 0)  -->
<svg version="1.1" id="Layer_1" xmlns="http://www.w3.org/2000/svg" xmlns:xlink="http://www.w3.org/1999/xlink" x="0px" y="0px"
	 viewBox="0 0 800 800" style="enable-background:new 0 0 800 800;" xml:space="preserve">
<style type="text/css">
	.st0{fill:#9E005D;}
	.st1{fill:#1B1464;}
	.st2{fill:none;}
	.st3{fill:#FFFFFF;}
	.st4{font-family:'MyriadPro-Regular';}
	.st5{font-size:39.6023px;}
	.st6{font-size:44.4703px;}
	.st7{font-size:34.1415px;}
	.st8{font-size:33.9315px;}
	.st9{font-size:40.8915px;}
	.st10{font-size:38.1819px;}
	.st11{font-size:38.844px;}
	.st12{font-size:38.4406px;}
	.st13{font-size:46.0425px;}
	.st14{font-size:33.7365px;}
	.st15{font-size:31.569px;}
	.st16{font-size:30.7365px;}
	.st17{font-size:55.1415px;}
	.st18{font-size:40.0965px;}
	.st19{font-size:36.5214px;}
	.st20{font-size:27.939px;}
	.st21{font-size:43.1415px;}
	.st22{font-size:32.604px;}
	.st23{font-size:34.8915px;}
	.st24{font-size:31.779px;}
	.st25{font-size:41.6415px;}
	.st26{font-size:57.954px;}
</style>
<path class="st0" d="M712.8,586.5c-17.5,29.8-39.2,56.8-64.3,80.3L443.3,448.5c3.9-3.9,7.2-8.4,9.8-13.3L712.8,586.5z"/>
<path class="st1" d="M749.5,499.9c-8.5,30.7-20.9,59.8-36.7,86.7L453.1,435.2c2.2-4,3.9-8.2,5.2-12.6c0.4-1.5,0.8-3,1.1-4.6
	L749.5,499.9z"/>
<path class="st1" d="M713.8,222.5l-262,152.2c-3.6-5.9-8.1-11.1-13.4-15.4L647.9,140C673.7,164.1,695.9,191.9,713.8,222.5z"/>
<path class="st0" d="M762.5,403.8c0,33.3-4.5,65.5-13,96.1L459.4,418c0.8-3.8,1.2-7.8,1.2-11.9c0-0.8,0-1.6,0-2.4H762.5z"/>
<path class="st0" d="M750.2,310L458,388.6c-1.5-4.9-3.6-9.6-6.2-13.9l262-152.2C729.5,249.6,741.9,279,750.2,310z"/>
<path class="st0" d="M349.6,372.6c-2.4,3.5-4.4,7.3-6,11.4L52.6,312.8c8.2-31.7,20.7-61.8,36.7-89.5L349.6,372.6z"/>
<path class="st1" d="M648.5,666.9c-25.4,23.8-54.2,44-85.7,59.7L428.2,459.7c5.6-3,10.7-6.8,15.1-11.2L648.5,666.9z"/>
<path class="st1" d="M458.2,760.1c-18.4,2.9-37.2,4.4-56.4,4.4c-18.6,0-36.9-1.4-54.7-4.1l44.6-294.3c2.7,0.4,5.5,0.6,8.4,0.6
	c3.6,0,7.2-0.3,10.6-0.9L458.2,760.1z"/>
<path class="st1" d="M370.4,459L234,723.2c-29.8-15.7-57.1-35.4-81.2-58.4l205.4-214.9C361.8,453.4,366,456.5,370.4,459z"/>
<path class="st1" d="M345.5,432.6L88.1,582.1c-15.4-27-27.4-56.2-35.4-87l287.9-77.5C341.6,422.9,343.3,427.9,345.5,432.6z"/>
<path class="st1" d="M343.7,383.9c-2.4,6.2-3.9,12.8-4.2,19.8H41c0-31.4,4-61.9,11.6-91L343.7,383.9z"/>
<path class="st0" d="M647.9,140L438.3,359.3c-3.6-2.9-7.5-5.4-11.6-7.5L565.8,82.4C595.9,97.8,623.5,117.2,647.9,140z"/>
<path class="st0" d="M452.4,46.5L407,346c-2.3-0.3-4.6-0.4-7-0.4c-3.4,0-6.8,0.3-10,0.8L341.8,48c19.5-3.3,39.5-5,60-5
	C419,43,435.9,44.2,452.4,46.5z"/>
<path class="st0" d="M374,351.5c-5.2,2.5-10.1,5.7-14.4,9.6l-206-219.2c25-23.7,53.5-43.9,84.5-59.7l116.2,230.3L374,351.5z"/>
<path class="st1" d="M762.5,403.8h-302c-0.2-5.2-1.1-10.3-2.5-15.1L750.2,310C758.2,339.9,762.5,371.3,762.5,403.8z"/>
<path class="st0" d="M340.5,417.6L52.7,495.1C45.1,466,41,435.3,41,403.8h298.5c0,0.8,0,1.6,0,2.4
	C339.5,410.1,339.8,413.9,340.5,417.6z"/>
<path class="st1" d="M390,346.5c-5.6,0.9-11,2.6-15.9,5l-19.7-39L238.1,82.2c32.1-16.4,66.9-28,103.6-34.2L390,346.5z"/>
<path class="st0" d="M562.9,726.6c-32.4,16.2-67.6,27.7-104.7,33.5l-47.5-294.3c6.2-1.1,12.1-3.2,17.6-6L562.9,726.6z"/>
<path class="st0" d="M391.6,466.1L347,760.4c-40.3-6.1-78.3-18.9-113-37.2L370.4,459C376.8,462.6,384,465.1,391.6,466.1z"/>
<path class="st0" d="M358.2,449.9L152.8,664.8c-25.4-24.2-47.2-52-64.7-82.7l257.4-149.5C348.7,439.1,353,445,358.2,449.9z"/>
<path class="st1" d="M565.8,82.4L426.7,351.8c-6.1-3-12.7-5-19.7-5.8l45.4-299.5C492.8,52.2,530.9,64.5,565.8,82.4z"/>
<path class="st1" d="M359.7,361c-3.8,3.4-7.2,7.3-10,11.5L89.3,223.3c17.5-30.2,39.2-57.6,64.3-81.5L359.7,361z"/>
<line class="st2" x1="341.8" y1="48" x2="341.2" y2="44.5"/>
<line class="st2" x1="452.8" y1="44" x2="452.4" y2="46.5"/>
<line class="st2" x1="41" y1="403.8" x2="39.3" y2="403.8"/>
<line class="st2" x1="648" y1="139.9" x2="647.9" y2="140"/>
<line class="st2" x1="716.7" y1="220.8" x2="713.8" y2="222.5"/>
<line class="st2" x1="566.4" y1="81.2" x2="565.8" y2="82.4"/>
<line class="st2" x1="52.6" y1="312.8" x2="49" y2="311.9"/>
<line class="st2" x1="89.3" y1="223.3" x2="89" y2="223.1"/>
<line class="st2" x1="153.6" y1="141.9" x2="150.7" y2="138.7"/>
<polyline class="st2" points="236.3,78.5 237.9,81.6 238.1,82.2 "/>
<line class="st2" x1="458.4" y1="761.4" x2="458.1" y2="760.1"/>
<line class="st2" x1="347" y1="760.4" x2="346.8" y2="762"/>
<line class="st2" x1="152.8" y1="664.8" x2="151.6" y2="666"/>
<line class="st2" x1="52.7" y1="495.1" x2="49.4" y2="496"/>
<line class="st2" x1="88.1" y1="582.1" x2="86.8" y2="582.8"/>
<line class="st2" x1="234" y1="723.2" x2="233.2" y2="724.7"/>
<line class="st2" x1="459.4" y1="418" x2="458" y2="417.6"/>
<line class="st2" x1="648.9" y1="667.2" x2="648.5" y2="666.9"/>
<line class="st2" x1="563.3" y1="727.5" x2="562.9" y2="726.6"/>
<text transform="matrix(0.8791 0.6051 -0.567 0.8237 115.7229 208.8774)" class="st3 st4 st5">Anshul pal</text>
<text transform="matrix(0.8261 0.3238 -0.3649 0.931 81.7003 286.0419)" class="st3 st4 st6">Divyansh</text>
<text transform="matrix(0.6165 0 0 1 89.3 383.94)" class="st3 st4 st7">Chirag Mishra</text>
<text transform="matrix(0.6536 -0.1051 0.1587 0.9873 81.7008 459.7299)" class="st3 st4 st8">Neeraj sangwa</text>
<text transform="matrix(0.9057 -0.1706 0.1851 0.9827 591.5921 398.5932)" class="st3 st4 st9">Zaheer</text>
<text transform="matrix(0.5353 -0.1745 0.3099 0.9508 101.677 526.3093)" class="st3 st4 st10">Ankesh fogawat</text>
<text transform="matrix(1.1718 -0.7513 0.5398 0.8418 150.6995 605.415)" class="st3 st4 st11">Tarun</text>
<text transform="matrix(0.4906 -0.5953 0.7717 0.636 209.3205 682.1754)" class="st3 st4 st12">Nitin Yadav</text>
<text transform="matrix(0.3673 -0.7985 0.9085 0.4179 299.8619 723.1801)" class="st3 st4 st13">Naresh</text>
<text transform="matrix(0.1082 -0.5436 0.9808 0.1952 391.6402 727.4495)" class="st3 st4 st14">Narottan pandey</text>
<text transform="matrix(0.8161 1.0799 -0.7978 0.6029 443.2691 609.9198)" class="st3 st4 st15">Jaipal</text>
<text transform="matrix(0.8741 1.022 -0.76 0.6499 503.6713 573.6804)" class="st3 st4 st16">Amit</text>
<text transform="matrix(0.3767 0.2886 -0.6081 0.7938 537.2906 532.6547)" class="st3 st4 st17">  Yash Mehra</text>
<text transform="matrix(0.4336 0.1808 -0.3849 0.923 575.8966 486.673)" class="st3 st4 st18">Yash Kumawat</text>
<text transform="matrix(0.6952 0.1054 -0.1499 0.9887 591.5922 439.0517)" class="st3 st4 st19">Pratik Ranjan</text>
<text transform="matrix(1.3601 -0.5117 0.3521 0.936 583.0695 346.4603)" class="st3 st4 st20">Sunil</text>
<text transform="matrix(0.7762 -0.6126 0.6195 0.785 546.5019 309.9507)" class="st3 st4 st21">Harshit</text>
<text transform="matrix(0.3737 -0.5275 0.816 0.5781 493.232 272.2454)" class="st3 st4 st22">      Anant-k-deep</text>
<text transform="matrix(0.5633 0.7374 -0.7946 0.6071 209.3203 152.4906)" class="st3 st4 st23">Habeeb</text>
<text transform="matrix(0.219 0.662 -0.9494 0.3141 292.4443 100.2481)" class="st3 st4 st24">Shivam Mishra</text>
<text transform="matrix(-5.826946e-02 -0.6081 0.9954 -9.538770e-02 402.5796 223.3207)" class="st3 st4 st25">.Ashok kumar</text>
<text transform="matrix(0.1385 -0.4243 0.9507 0.3102 474.4499 229.9595)" class="st3 st4 st26">Harshit pareek</text>
</svg>
