<?xml version="1.0" encoding="utf-8"?>
<!-- Generator: Adobe Illustrator 24.0.2, SVG Export Plug-In . SVG Version: 6.00 Build 0)  -->
<svg version="1.1" id="Layer_1" xmlns="http://www.w3.org/2000/svg" xmlns:xlink="http://www.w3.org/1999/xlink" x="0px" y="0px"
	 viewBox="0 0 800 800" style="enable-background:new 0 0 800 800;" xml:space="preserve">
<style type="text/css">
	.st0{fill:#9E005D;}
	.st1{fill:#1B1464;}
	.st2{fill:none;}
	.st3{fill:#FFFFFF;}
	.st4{font-family:'ArialMT';}
	.st5{font-size:37.4334px;}
	.st6{font-size:49.2933px;}
	.st7{font-size:37.8556px;}
	.st8{font-size:37.6199px;}
	.st9{font-size:45.336px;}
	.st10{font-size:42.3265px;}
	.st11{font-size:43.031px;}
	.st12{font-size:42.556px;}
	.st13{font-size:50.9458px;}
	.st14{font-size:37.3234px;}
	.st15{font-size:34.9382px;}
	.st16{font-size:34.0339px;}
	.st17{font-size:61.0849px;}
	.st18{font-size:44.4453px;}
	.st19{font-size:40.4928px;}
	.st20{font-size:30.9709px;}
	.st21{font-size:47.7923px;}
	.st22{font-size:36.0958px;}
	.st23{font-size:38.6268px;}
	.st24{font-size:35.1661px;}
	.st25{font-size:46.0619px;}
	.st26{font-size:64.1247px;}
</style>
<path class="st0" d="M745,602.6c-19.4,33-43.4,63-71.1,89l-227-242.1c4.3-4.3,8-9.3,10.8-14.7L745,602.6z"/>
<path class="st1" d="M785.6,506.6c-9.4,34-23.1,66.3-40.6,96.1L457.7,434.9c2.4-4.4,4.3-9.1,5.8-14c0.4-1.7,0.9-3.3,1.2-5.1
	L785.6,506.6z"/>
<path class="st1" d="M746.1,199L456.3,367.8c-4-6.5-9-12.3-14.8-17.1l231.7-243.2C701.8,134.3,726.3,165.1,746.1,199z"/>
<path class="st0" d="M800,400.1c0,36.9-5,72.6-14.4,106.6l-320.9-90.8c0.9-4.2,1.3-8.6,1.3-13.2c0-0.9,0-1.8,0-2.7h334V400.1z"/>
<path class="st0" d="M786.4,296l-323.2,87.2c-1.7-5.4-4-10.6-6.9-15.4L746.1,199C763.5,229.1,777.2,261.7,786.4,296z"/>
<path class="st0" d="M343.3,365.5c-2.7,3.9-4.9,8.1-6.6,12.6L14.7,299.2c9.1-35.1,22.9-68.5,40.6-99.2L343.3,365.5z"/>
<path class="st1" d="M673.9,691.8c-28.1,26.4-60,48.8-94.8,66.2L430.2,462c6.2-3.3,11.8-7.5,16.7-12.4L673.9,691.8z"/>
<path class="st1" d="M463.4,795.1c-20.4,3.2-41.2,4.9-62.4,4.9c-20.6,0-40.8-1.6-60.5-4.5l49.3-326.3c3,0.4,6.1,0.7,9.3,0.7
	c4,0,8-0.3,11.7-1L463.4,795.1z"/>
<path class="st1" d="M366.3,461.3L215.4,754.2c-33-17.4-63.2-39.3-89.8-64.8l227.2-238.3C356.7,455.1,361.4,458.5,366.3,461.3z"/>
<path class="st1" d="M338.7,432L54,597.8c-17-29.9-30.3-62.3-39.2-96.5l318.5-85.9C334.4,421.2,336.3,426.8,338.7,432z"/>
<path class="st1" d="M336.7,378c-2.7,6.9-4.3,14.2-4.6,22H1.9c0-34.8,4.4-68.6,12.8-100.9L336.7,378z"/>
<path class="st0" d="M673.2,107.6L441.4,350.7c-4-3.2-8.3-6-12.8-8.3L582.4,43.7C615.7,60.8,646.2,82.3,673.2,107.6z"/>
<path class="st0" d="M457,3.9L406.7,336c-2.5-0.3-5.1-0.4-7.7-0.4c-3.8,0-7.5,0.3-11.1,0.9L334.6,5.5C356.2,1.9,378.3,0,401,0
	C420,0,438.7,1.3,457,3.9z"/>
<path class="st0" d="M370.2,342.1c-5.8,2.8-11.2,6.3-15.9,10.6l-227.9-243c27.7-26.3,59.2-48.7,93.5-66.2l128.5,255.4L370.2,342.1z"
	/>
<path class="st1" d="M800,400.1H465.9c-0.2-5.8-1.2-11.4-2.8-16.7L786.4,296C795.2,329.2,800,364,800,400.1z"/>
<path class="st0" d="M333.2,415.4L14.8,501.3C6.4,469,1.9,435,1.9,400.1h330.2c0,0.9,0,1.8,0,2.7C332.1,407,332.4,411.3,333.2,415.4
	z"/>
<path class="st1" d="M387.9,336.5c-6.2,1-12.2,2.9-17.6,5.5l-21.8-43.2L219.9,43.5c35.5-18.2,74-31,114.6-37.9L387.9,336.5z"/>
<path class="st0" d="M579.2,758c-35.8,18-74.8,30.7-115.8,37.1l-52.5-326.3c6.9-1.2,13.4-3.5,19.5-6.7L579.2,758z"/>
<path class="st0" d="M389.7,469.1l-49.3,326.3c-44.6-6.8-86.6-21-125-41.2l150.9-292.9C373.3,465.3,381.3,468,389.7,469.1z"/>
<path class="st0" d="M352.8,451.2L125.6,689.5c-28.1-26.8-52.2-57.7-71.6-91.7L338.7,432C342.3,439.2,347,445.7,352.8,451.2z"/>
<path class="st1" d="M582.4,43.7L428.5,342.4c-6.7-3.3-14-5.5-21.8-6.4L457,3.9C501.7,10.2,543.8,23.8,582.4,43.7z"/>
<path class="st1" d="M354.4,352.6c-4.2,3.8-8,8.1-11.1,12.8L55.3,199.9c19.4-33.5,43.4-63.9,71.1-90.4L354.4,352.6z"/>
<line class="st2" x1="334.6" y1="5.5" x2="334" y2="1.7"/>
<line class="st2" x1="457.4" y1="1.1" x2="457" y2="3.9"/>
<line class="st2" x1="1.9" y1="400.1" x2="0" y2="400.1"/>
<line class="st2" x1="673.3" y1="107.4" x2="673.2" y2="107.6"/>
<line class="st2" x1="749.3" y1="197.1" x2="746.1" y2="199"/>
<line class="st2" x1="583.1" y1="42.4" x2="582.4" y2="43.7"/>
<line class="st2" x1="14.7" y1="299.2" x2="10.7" y2="298.2"/>
<line class="st2" x1="55.3" y1="199.9" x2="55" y2="199.7"/>
<line class="st2" x1="126.4" y1="109.7" x2="123.2" y2="106.1"/>
<polyline class="st2" points="217.9,39.4 219.7,42.8 219.9,43.5 "/>
<line class="st2" x1="463.6" y1="796.6" x2="463.3" y2="795.1"/>
<line class="st2" x1="340.4" y1="795.5" x2="340.2" y2="797.2"/>
<line class="st2" x1="125.6" y1="689.5" x2="124.2" y2="690.8"/>
<line class="st2" x1="14.8" y1="501.3" x2="11.2" y2="502.3"/>
<line class="st2" x1="54" y1="597.8" x2="52.5" y2="598.5"/>
<line class="st2" x1="215.4" y1="754.2" x2="214.5" y2="755.9"/>
<line class="st2" x1="464.7" y1="415.8" x2="463.2" y2="415.4"/>
<line class="st2" x1="674.3" y1="692.1" x2="673.9" y2="691.8"/>
<line class="st2" x1="579.6" y1="759" x2="579.2" y2="758"/>
<text transform="matrix(-0.8462 -0.6388 0.5884 -0.8086 244.5134 272.1636)" class="st3 st4 st5">Anshul pal</text>
<text transform="matrix(-0.8333 -0.3001 0.3374 -0.9413 224.1663 308.1187)" class="st3 st4 st6">Divyansh</text>
<text transform="matrix(-0.6133 -4.678474e-02 7.570927e-02 -0.9971 200.7855 363.3818)" class="st3 st4 st7">Chirag Mishra</text>
<text transform="matrix(-0.6517 0.1079 -0.1626 -0.9867 207.2685 415.531)" class="st3 st4 st8">Neeraj sangwa</text>
<text transform="matrix(0.9037 -0.1706 0.1847 0.9828 610.9427 394.2836)" class="st3 st4 st9">Zaheer</text>
<text transform="matrix(-0.5301 0.1866 -0.3306 -0.9438 222.0139 460.1344)" class="st3 st4 st10">Ankesh fogawat</text>
<text transform="matrix(-1.0848 0.8711 -0.6244 -0.7811 231.232 517.614)" class="st3 st4 st11">Tarun</text>
<text transform="matrix(-0.4413 0.6335 -0.8193 -0.5734 269.5517 563.5897)" class="st3 st4 st12">Nitin Yadav</text>
<text transform="matrix(-0.2946 0.8298 -0.9419 -0.336 317.439 610.0847)" class="st3 st4 st13">Naresh</text>
<text transform="matrix(-0.101 0.5462 -0.9832 -0.1826 397.2515 634.4007)" class="st3 st4 st14">Narottan pandey</text>
<text transform="matrix(0.619 1.2059 -0.8888 0.4584 454.9954 621.5873)" class="st3 st4 st15">Jaipal</text>
<text transform="matrix(0.8732 1.0234 -0.7593 0.6508 513.6848 588.4199)" class="st3 st4 st16">Amit</text>
<text transform="matrix(0.3762 0.2889 -0.6072 0.7945 550.8735 542.9287)" class="st3 st4 st17">  Yash Mehra</text>
<text transform="matrix(0.4327 0.1809 -0.3841 0.9233 593.5805 491.9465)" class="st3 st4 st18">Yash Kumawat</text>
<text transform="matrix(0.6936 0.1054 -0.1496 0.9888 610.944 439.1437)" class="st3 st4 st19">Pratik Ranjan</text>
<text transform="matrix(1.3573 -0.5118 0.3514 0.9362 601.5158 336.4769)" class="st3 st4 st20">Sunil</text>
<text transform="matrix(0.7751 -0.6132 0.6186 0.7857 561.0643 295.9957)" class="st3 st4 st21">Harshit</text>
<text transform="matrix(0.3734 -0.5283 0.8153 0.579 502.1391 254.1888)" class="st3 st4 st22">      Anant-k-deep</text>
<text transform="matrix(-0.5392 -0.7561 0.8128 -0.5825 286.9346 226.8865)" class="st3 st4 st23">Habeeb</text>
<text transform="matrix(-0.2648 -0.6463 0.9247 -0.3807 338.7156 197.1439)" class="st3 st4 st24">Shivam Mishra</text>
<text transform="matrix(-2.470266e-02 -0.6118 0.9992 -4.053744e-02 406.7487 200.9393)" class="st3 st4 st25">.Ashok kumar</text>
<text transform="matrix(0.1385 -0.4252 0.9505 0.3109 481.3618 207.3009)" class="st3 st4 st26">Harshit pareek</text>
</svg>
