<?xml version="1.0" encoding="utf-8"?>
<!-- Generator: Adobe Illustrator 24.0.2, SVG Export Plug-In . SVG Version: 6.00 Build 0)  -->
<svg version="1.1" id="Layer_1" xmlns="http://www.w3.org/2000/svg" xmlns:xlink="http://www.w3.org/1999/xlink" x="0px" y="0px"
	 viewBox="0 0 800 800" style="enable-background:new 0 0 800 800;" xml:space="preserve">
<style type="text/css">
	.st0{fill:#1B1464;}
	.st1{fill:#9E005D;}
	.st2{fill:#FFFFFF;}
	.st3{font-family:'MyriadPro-Regular';}
	.st4{font-size:59.5469px;}
	.st5{font-size:59.6274px;}
	.st6{font-size:59.6115px;}
	.st7{font-size:59.527px;}
	.st8{font-size:59.5183px;}
	.st9{font-size:59.6069px;}
	.st10{font-size:59.6213px;}
	.st11{font-size:59.5274px;}
</style>
<path class="st0" d="M406.7,0.1l-5.8,341.1c-0.3,0-0.6,0-0.9,0c-13.9,0-26.6,5.4-35.9,14.3L117.2,117.1C189.5,44.8,289.6,0,400,0
	C402.2,0,404.5,0,406.7,0.1z"/>
<path class="st0" d="M362.7,430L111.1,676.7C42.3,604.8,0,507.3,0,400c0-2.2,0-4.4,0.1-6.5h347.7C347.8,407.7,353.5,420.6,362.7,430
	z"/>
<path class="st1" d="M800,400c0,107.1-42.1,204.4-110.6,276.2L437.4,430c9-9.2,14.7-21.8,14.9-35.7L800,400z"/>
<path class="st1" d="M399.5,445.7L395.7,800c-111.9-1.2-212.7-48.3-284.6-123.3L362.7,430C372,439.6,385,445.5,399.5,445.7z"/>
<path class="st0" d="M689.4,676.2C616.5,752.5,513.8,800,400,800c-1.4,0-2.8,0-4.3,0l3.7-354.3c0.2,0,0.4,0,0.5,0
	c14.7,0,27.9-6,37.4-15.7L689.4,676.2z"/>
<path class="st1" d="M684,118.3L438.9,358.6c-9.4-10.5-22.9-17.1-38-17.4l5.8-341.1C515.1,1.8,613,46.7,684,118.3z"/>
<path class="st1" d="M364.1,355.5c-10,9.5-16.3,23-16.3,37.9H0.1c1.7-107.9,46.2-205.4,117.1-276.3L364.1,355.5z"/>
<path class="st0" d="M452.2,394.3c0-0.3,0-0.5,0-0.8c0-13.4-5-25.6-13.3-34.9L684,118.3c71.7,72.3,116,171.8,116,281.7L452.2,394.3z
	"/>
<text transform="matrix(0.2707 -0.3857 0.8171 0.5765 490.3055 235.404)" class="st2 st3 st4">Pinki  Choudhary</text>
<text transform="matrix(-0.5499 0.2223 -0.3731 -0.9278 227.0861 437.6635)" class="st2 st3 st5">Neeru Poonia</text>
<text transform="matrix(0.5147 0.2953 -0.4957 0.8685 555.0753 474.0547)" class="st2 st3 st6">Khushi Sharma</text>
<text transform="matrix(0.2663 0.5322 -0.8933 0.4494 454.4693 565.2545)" class="st2 st3 st7">Jyothsna</text>
<text transform="matrix(-0.226 0.5507 -0.9244 -0.3813 313.3206 550.2295)" class="st2 st3 st8">Gunjan</text>
<text transform="matrix(0.5053 -0.3114 0.5226 0.8526 563.0645 358.7704)" class="st2 st3 st9">Reena</text>
<text transform="matrix(-0.5368 -0.2525 0.4238 -0.9057 227.0862 303.4408)" class="st2 st3 st10">Raadha</text>
<text transform="matrix(-0.27 -0.5304 0.8903 -0.4555 338.8076 202.2384)" class="st2 st3 st11">Babita</text>
</svg>
