<?xml version="1.0" encoding="utf-8"?>
<!-- Generator: Adobe Illustrator 24.0.2, SVG Export Plug-In . SVG Version: 6.00 Build 0)  -->
<svg version="1.1" id="Layer_1" xmlns="http://www.w3.org/2000/svg" xmlns:xlink="http://www.w3.org/1999/xlink" x="0px" y="0px"
	 viewBox="0 0 800 800" style="enable-background:new 0 0 800 800;" xml:space="preserve">
<style type="text/css">
	.st0{fill:#9E005D;}
	.st1{fill:#1B1464;}
	.st2{fill:none;}
	.st3{fill:#FFFFFF;}
	.st4{font-family:'MyriadPro-Regular';}
	.st5{font-size:42.991px;}
	.st6{font-size:32.8579px;}
	.st7{font-size:37.4332px;}
	.st8{font-size:42.262px;}
	.st9{font-size:45.2082px;}
	.st10{font-size:35.6477px;}
	.st11{font-size:49.3642px;}
	.st12{font-size:52.2754px;}
	.st13{font-size:50.4465px;}
	.st14{font-size:44.4334px;}
	.st15{font-size:35.0799px;}
	.st16{font-size:41.781px;}
	.st17{font-size:38.5081px;}
	.st18{font-size:49.0811px;}
</style>
<path class="st0" d="M493.7,10.9l-82.8,338.3c-3.7-0.9-7.5-1.4-11.5-1.4c-3.6,0-7.1,0.4-10.5,1.2L305,11.2C335.5,3.9,367.3,0,400,0
	C432.3,0,463.7,3.8,493.7,10.9z"/>
<path class="st0" d="M757.6,217.1L441.2,373.3c-3.1-6.2-7.7-11.7-13.3-15.9L641.6,79.9C690.1,116.1,730,163.1,757.6,217.1z"/>
<path class="st1" d="M641.6,79.9L427.9,357.4c-5-3.8-10.7-6.6-17-8.2l82.8-338.3C548.2,23.7,598.3,47.6,641.6,79.9z"/>
<path class="st0" d="M370.2,357.8c-5.7,4.5-10.3,10.3-13.3,16.9L34.6,233.2C60.2,176.9,98.8,127.6,146.7,89L370.2,357.8z"/>
<path class="st1" d="M388.9,348.9c-6.9,1.6-13.3,4.7-18.7,8.9L146.7,89C192.2,52.3,246,25.3,305,11.2L388.9,348.9z"/>
<path class="st0" d="M654.4,697.4c-45.3,36.8-98.9,63.9-157.7,78.3l-84-338.1c6.6-1.9,12.6-5.3,17.6-9.7L654.4,697.4z"/>
<path class="st0" d="M358.2,415.2L38.6,562.5C13.8,511.3,0,454.1,0,393.6h352.7v0C352.7,401.4,354.7,408.8,358.2,415.2z"/>
<path class="st1" d="M352.7,393.6H0c0-57.1,12.4-111.4,34.6-160.4l322.3,141.5C354.2,380.5,352.7,386.9,352.7,393.6z"/>
<path class="st0" d="M390.8,438.8l-80.4,338.6c-55.2-12.4-106.1-36.1-150-68.5l212.4-277.5C378.1,435,384.2,437.6,390.8,438.8z"/>
<path class="st1" d="M372.8,431.4L160.4,708.9c-51.7-38.1-93.8-88.3-121.8-146.3l319.6-147.3C361.7,421.7,366.7,427.2,372.8,431.4z"
	/>
<path class="st1" d="M496.8,775.7c-31,7.6-63.4,11.6-96.8,11.6c-30.8,0-60.8-3.4-89.6-9.9l80.4-338.6c2.8,0.5,5.6,0.8,8.6,0.8
	c4.7,0,9.2-0.7,13.4-1.9L496.8,775.7z"/>
<path class="st0" d="M800,393.6c0,56.9-12.2,110.9-34.3,159.7l-323.3-142c2.3-5.5,3.6-11.5,3.6-17.8c0-0.3,0-0.6,0-0.9l353.9-6.6
	C800,388.6,800,391.1,800,393.6z"/>
<path class="st1" d="M442.4,411.4l323.3,142c-25.4,56.2-63.7,105.4-111.3,144l-224-269.5C435.5,423.4,439.7,417.8,442.4,411.4z"/>
<path class="st1" d="M446,392.8c-0.1-7-1.8-13.6-4.8-19.5l316.4-156.2c26,51,41.2,108.3,42.3,169L446,392.8z"/>
<line class="st2" x1="310.4" y1="777.3" x2="305" y2="800"/>
<line class="st2" x1="160.4" y1="708.9" x2="146.7" y2="726.8"/>
<line class="st2" x1="38.6" y1="562.5" x2="23.7" y2="569.4"/>
<line class="st2" x1="496.9" y1="776.1" x2="496.8" y2="775.7"/>
<line class="st2" x1="655.2" y1="698.3" x2="654.4" y2="697.4"/>
<line class="st2" x1="767.2" y1="554" x2="765.7" y2="553.4"/>
<text transform="matrix(0.5664 0 0 1 31.1538 368.0317)" class="st3 st4 st5">Abhishek Choudhary</text>
<text transform="matrix(0.9192 -0.1669 0.1843 0.9829 86.8001 478.0797)" class="st3 st4 st6">Aman Pareek</text>
<text transform="matrix(0.6092 -0.3591 0.5199 0.8542 146.7064 584.902)" class="st3 st4 st7">Anurag Panda</text>
<text transform="matrix(0.6273 -0.917 0.8338 0.5521 269.4922 677.5303)" class="st3 st4 st8">Arvind</text>
<text transform="matrix(7.487912e-02 -0.6208 0.9932 0.116 399.3679 739.6857)" class="st3 st4 st9">Aryan Prajapat</text>
<text transform="matrix(0.6697 0.5166 -0.6231 0.7822 114.6233 189.252)" class="st3 st4 st10">Darshan Panwar</text>
<text transform="matrix(0.2629 0.4729 -0.8805 0.4741 206.5477 67.3932)" class="st3 st4 st11">Lakshmikant Dhaker</text>
<text transform="matrix(2.814445e-02 0.6809 -0.9992 3.999440e-02 383.2525 21.0603)" class="st3 st4 st12">Lomesh Kumar</text>
<text transform="matrix(0.2923 -0.5592 0.8922 0.4516 480.3327 252.0668)" class="st3 st4 st13">Omkar Ji Saini</text>
<text transform="matrix(-0.5142 0.3837 -0.6099 -0.7925 695.5577 147.1722)" class="st3 st4 st14">Praveen Devireddy</text>
<text transform="matrix(-0.5641 9.151431e-02 -0.1632 -0.9866 765.6931 320.3287)" class="st3 st4 st15">Rameshwar Choudhary</text>
<text transform="matrix(-0.7529 -0.2217 0.291 -0.9567 749.2809 463.0149)" class="st3 st4 st16">Rishu Kishan</text>
<text transform="matrix(-0.7592 -0.6528 0.6639 -0.7478 670.2954 575.7838)" class="st3 st4 st17">Shivkant</text>
<text transform="matrix(-0.1819 -0.3886 0.9108 -0.4129 561.4945 677.949)" class="st3 st4 st18">Suryanarayan Singh</text>
</svg>
